<mxfile host="app.diagrams.net" modified="2024-11-21T12:29:40.462Z" agent="Mozilla/5.0 (Windows NT 10.0; Win64; x64) AppleWebKit/537.36 (KHTML, like Gecko) Chrome/131.0.0.0 Safari/537.36" version="24.6.5" etag="DcKJ_oG6H5D5OYGhaUgu" type="github">
  <diagram name="Page-1" id="otfVDsUhAaCrw_B_sHlH">
    <mxGraphModel>
      <root>
        <mxCell id="0" />
        <mxCell id="1" parent="0" />
      </root>
    </mxGraphModel>
  </diagram>
</mxfile>
